<svg xmlns="http://www.w3.org/2000/svg" width="1916" height="1502" viewBox="0 0 1916 1502"  xmlns:v="https://vecta.io/nano"><defs><linearGradient x1="28.6531815%" y1="7.4834936%" x2="66.9423945%" y2="94.6897361%" id="A"><stop stop-color="#ff6eff" offset="0%"/><stop stop-color="#d158fa" offset="24%"/><stop stop-color="#ab46f5" offset="49%"/><stop stop-color="#933af2" offset="68%"/><stop stop-color="#8a36f1" offset="80%"/></linearGradient></defs><path fill-opacity=".4" fill="#322332" opacity="0" d="M0 0h1916v1502H0z" fill-rule="evenodd"/><path d="M1712.834 1711.01c-256.406-104.424-453.11-282.448-601.423-543.509C979.436 934.12 888.909 634.188 841.147 274.994l-.597-4.534c-2.502-19.807-12.805-37.793-28.618-49.961a74.73 74.73 0 0 0-55.593-14.833l-349.416 45.921c-41.2 5.862-70.207 43.552-65.358 84.923l.482 4.504c55.932 423.358 167.313 784.967 331.337 1074.964 202.988 357.936 488.787 614.946 848.887 761.518l3.915 1.533c38.695 15.23 82.465-3.189 98.666-41.518l132.602-326.483c20.253-49.82 5.38-83.16-44.62-100.021z" fill="url(#A)" fill-rule="nonzero" transform="matrix(-.913545 -.406737 -.406737 .913545 2354.076185 130.820711)"/></svg>