<svg xmlns="http://www.w3.org/2000/svg" width="945" height="727" viewBox="0 0 945 727" xmlns:v="https://vecta.io/nano"><defs><linearGradient x1="13.7488994%" y1="12.7995512%" x2="85.417659%" y2="88.2819734%" id="A"><stop stop-color="#ff6eff" offset="0%"/><stop stop-color="#ff0a0a" offset="100%"/></linearGradient></defs><path fill-opacity=".4" fill="#322332" opacity="0" d="M0 0h945v727H0z" fill-rule="evenodd"/><path d="M913.724 679.182l-2.513-1.259c-227.406-106.706-413.809-299.2-543.187-557.442l-2.723-5.266c-11.444-21.85-38.068-30.742-60.308-20.142l-188.461 93.785C94.725 200.324 85.85 227 96.429 249.283l1.256 2.518C257.25 572.179 494.711 813.879 784.313 949.836l2.513 1.259c22.404 10.006 48.7.577 59.679-21.401l89.205-190.717a44.77 44.77 0 0 0 1.512-34.514c-4.134-11.243-12.601-20.351-23.499-25.281z" fill="url(#A)" fill-rule="nonzero" transform="matrix(-.970296 -.241922 -.241922 .970296 1088.107879 -6.517001)"/></svg>